# .PCD v0.7 - Point Cloud Data file
VERSION 0.7
FIELDS x y z intensity
SIZE 4 4 4 4
TYPE F F F I
COUNT 1 1 1 1
WIDTH 0000001127
HEIGHT 1
VIEWPOINT 0 0 0 1 0 0 0
POINTS 0000001127
DATA ascii
-41.570830 0.000000 170.145212 36
-41.449025 0.000000 169.940818 44
-41.321145 0.000000 169.701711 45
-41.162207 0.000000 169.288226 46
-41.046234 0.000000 169.113283 42
-40.926715 0.000000 168.917709 37
-40.725868 0.000000 168.264346 33
-40.600947 0.000000 168.035662 41
-40.475062 0.000000 167.800543 41
-40.334843 0.000000 167.483327 36
-40.191395 0.000000 167.146422 40
-40.070064 0.000000 166.933694 46
-39.980202 0.000000 166.899183 40
-39.844851 0.000000 166.604981 31
-39.684870 0.000000 166.168655 30
-39.562196 0.000000 165.944208 35
-39.442131 0.000000 165.733759 39
-39.337573 0.000000 165.611638 37
-39.219077 0.000000 165.408574 36
-39.098467 0.000000 165.192398 35
-38.976933 0.000000 164.969915 34
-38.856801 0.000000 164.754593 36
-38.754190 0.000000 164.640261 39
-38.619537 0.000000 164.338580 35
-38.514959 0.000000 164.211315 42
-38.397970 0.000000 164.010805 45
-38.293678 0.000000 163.883921 44
-38.177065 0.000000 163.684005 39
-38.040404 0.000000 163.365024 36
-37.923174 0.000000 163.159427 38
-37.824028 0.000000 163.059973 35
-37.703825 0.000000 162.835146 37
-37.589406 0.000000 162.643713 43
-37.474083 0.000000 162.446037 42
-37.382069 0.000000 162.386664 42
-37.268163 0.000000 162.196014 41
-37.152269 0.000000 161.992595 41
-37.051824 0.000000 161.881115 44
-36.937379 0.000000 161.684811 42
-36.837185 0.000000 161.573647 39
-36.722013 0.000000 161.371381 41
-36.608123 0.000000 161.175989 44
-36.520093 0.000000 161.136808 47
-36.407569 0.000000 160.948324 46
-36.309042 0.000000 160.844392 46
-36.192613 0.000000 160.630533 41
-36.079568 0.000000 160.436462 44
-35.980376 0.000000 160.326569 42
-35.882331 0.000000 160.223231 48
-35.784379 0.000000 160.119993 40
-35.668835 0.000000 159.907550 40
-35.558690 0.000000 159.727596 43
-35.460080 0.000000 159.618419 46
-35.360540 0.000000 159.502951 39
-35.263158 0.000000 159.400399 43
-35.163824 0.000000 159.285164 42
-35.053385 0.000000 159.099861 46
-34.945163 0.000000 158.927612 44
-34.856329 0.000000 158.876521 39
-34.745349 0.000000 158.685562 35
-34.646614 0.000000 158.571090 39
-34.549987 0.000000 158.469422 38
-34.441476 0.000000 158.291845 38
-34.343081 0.000000 158.177791 42
-34.245783 0.000000 158.070178 39
-34.136732 0.000000 157.886950 41
-34.049510 0.000000 157.842663 40
-33.940739 0.000000 157.659824 38
-33.833128 0.000000 157.483578 38
-33.736398 0.000000 157.376661 42
-33.637825 0.000000 157.257308 40
-33.530662 0.000000 157.081724 43
-33.446790 0.000000 157.056553 45
-33.340844 0.000000 156.887549 43
-33.241760 0.000000 156.762500 44
-33.142792 0.000000 156.637599 44
-33.040141 0.000000 156.487935 45
-32.953727 0.000000 156.444236 42
-32.846586 0.000000 156.263774 43
-32.738685 0.000000 156.077413 47
-32.652503 0.000000 156.033887 50
-32.553287 0.000000 155.903648 48
-32.456052 0.000000 155.785941 39
-32.345030 0.000000 155.575721 41
-32.250831 0.000000 155.476880 57
-32.159480 0.000000 155.396620 58
-32.064532 0.000000 155.291791 63
-31.969679 0.000000 155.187067 49
-31.874922 0.000000 155.082447 48
-31.768469 0.000000 154.898156 45
-31.673942 0.000000 154.793824 40
-31.576809 0.000000 154.671231 41
-31.471720 0.000000 154.493768 44
-31.378417 0.000000 154.395944 42
-31.286093 0.000000 154.304312 51
-31.202726 0.000000 154.273725 49
-31.099922 0.000000 154.109111 45
-30.996399 0.000000 153.938676 46
-30.911468 0.000000 153.896047 51
-30.818698 0.000000 153.798784 42
-30.715559 0.000000 153.628855 40
-30.620398 0.000000 153.513678 44
-30.515833 0.000000 153.332123 46
-30.422641 0.000000 153.229349 49
-30.332115 0.000000 153.144775 59
-30.248508 0.000000 153.108508 58
-30.147880 0.000000 152.951745 60
-30.055893 0.000000 152.855366 51
-29.952154 0.000000 152.674956 46
-29.857014 0.000000 152.554835 55
-29.765340 0.000000 152.458826 53
-29.672917 0.000000 152.356918 59
-29.580586 0.000000 152.255112 48
-29.488348 0.000000 152.153406 52
-29.397854 0.000000 152.063743 46
-29.305793 0.000000 151.962227 49
-29.205618 0.000000 151.801234 51
-29.113771 0.000000 151.699977 50
-29.022015 0.000000 151.598821 60
-28.931161 0.000000 151.503703 51
-28.838776 0.000000 151.396808 52
-28.738440 0.000000 151.230773 51
-28.644677 0.000000 151.112328 46
-28.554217 0.000000 151.017662 57
-28.464636 0.000000 150.928992 57
-28.375135 0.000000 150.840398 65
-28.284132 0.000000 150.740091 56
-28.184569 0.000000 150.575116 58
-28.097696 0.000000 150.504475 60
-28.003081 0.000000 150.375122 54
-27.911694 0.000000 150.269404 51
-27.811890 0.000000 150.099327 55
-27.723040 0.000000 150.011456 52
-27.631964 0.000000 149.906116 54
-27.540219 0.000000 149.795044 48
-27.450860 0.000000 149.701600 55
-27.353239 0.000000 149.544123 54
-27.263323 0.000000 149.445089 48
-27.171991 0.000000 149.334522 57
-27.083758 0.000000 149.247314 54
-26.994856 0.000000 149.154377 61
-26.907524 0.000000 149.073126 55
-26.820263 0.000000 148.991941 57
-26.728644 0.000000 148.876080 46
-26.629782 0.000000 148.702539 47
-26.539869 0.000000 148.598556 52
-26.450049 0.000000 148.494680 41
-26.361049 0.000000 148.396673 43
-26.266354 0.000000 148.252718 44
-26.186193 0.000000 148.223953 44
-26.098879 0.000000 148.137705 41
-26.010927 0.000000 148.045789 49
-25.921632 0.000000 147.942483 51
-25.826760 0.000000 147.793448 51
-25.735557 0.000000 147.673235 59
-25.647977 0.000000 147.581743 50
-25.560479 0.000000 147.490335 56
-25.473061 0.000000 147.399010 54
-25.380170 0.000000 147.262172 58
-25.297084 0.000000 147.205220 57
-25.211290 0.000000 147.125536 56
-25.124880 0.000000 147.040229 46
-25.036495 0.000000 146.937954 50
-24.941398 0.000000 146.779056 53
-24.854577 0.000000 146.688379 51
-24.767161 0.000000 146.592122 61
-24.679831 0.000000 146.495959 57
-24.592584 0.000000 146.399887 63
-24.504091 0.000000 146.292620 57
-24.413039 0.000000 146.162918 62
-24.330692 0.000000 146.106593 63
-24.237208 0.000000 145.954628 59
-24.144521 0.000000 145.808510 54
-24.063049 0.000000 145.757999 51
-23.978372 0.000000 145.679462 57
-23.893115 0.000000 145.595382 52
-23.806642 0.000000 145.500172 59
-23.720252 0.000000 145.405053 57
-23.628835 0.000000 145.265320 59
-23.546447 0.000000 145.203918 58
-23.455876 0.000000 145.070042 57
-23.370469 0.000000 144.980902 61
-23.285767 0.000000 144.897407 52
-23.199260 0.000000 144.797299 60
-23.114085 0.000000 144.708402 58
-23.024646 0.000000 144.580735 58
-22.943344 0.000000 144.525300 57
-22.858398 0.000000 144.436644 56
-22.772916 0.000000 144.342532 49
-22.683247 0.000000 144.209802 54
-22.603405 0.000000 144.165625 57
-22.513323 0.000000 144.027610 53
-22.431787 0.000000 143.966967 54
-22.343109 0.000000 143.840242 61
-22.262894 0.000000 143.790723 62
-22.173212 0.000000 143.653225 66
-22.087792 0.000000 143.554355 61
-22.003044 0.000000 143.461070 64
-21.913685 0.000000 143.324023 62
-21.833784 0.000000 143.274761 64
-21.744623 0.000000 143.137970 71
-21.664838 0.000000 143.088799 76
-21.578178 0.000000 142.974102 69
-21.497926 0.000000 142.919555 62
-21.408580 0.000000 142.777799 64
-21.325042 0.000000 142.690682 58
-21.241011 0.000000 142.598200 65
-21.162692 0.000000 142.560171 63
-21.076547 0.000000 142.446080 63
-20.996085 0.000000 142.386392 64
-20.908441 0.000000 142.256234 68
-20.824231 0.000000 142.158739 63
-20.741756 0.000000 142.077573 68
-20.658251 0.000000 141.985658 60
-20.574824 0.000000 141.893829 70
-20.488211 0.000000 141.769707 70
-20.408198 0.000000 141.710424 66
-20.321231 0.000000 141.581145 68
-20.244025 0.000000 141.548887 74
-20.161505 0.000000 141.462838 71
-20.078525 0.000000 141.371490 83
-19.995621 0.000000 141.280226 75
-19.913846 0.000000 141.199773 80
-19.831614 0.000000 141.114026 68
-19.749975 0.000000 141.033709 78
-19.668402 0.000000 140.953456 68
-19.586379 0.000000 140.867921 74
-19.503397 0.000000 140.771776 70
-19.418448 0.000000 140.654382 72
-19.334110 0.000000 140.542456 71
-19.251894 0.000000 140.451950 67
-19.172278 0.000000 140.388127 89
-19.090703 0.000000 140.303079 80
-19.008200 0.000000 140.207480 84
-18.926275 0.000000 140.117279 71
-18.843434 0.000000 140.016558 78
-18.757724 0.000000 139.884171 75
-18.679969 0.000000 139.836586 77
-18.600300 0.000000 139.767871 70
-18.519230 0.000000 139.683353 66
-18.432436 0.000000 139.535583 60
-18.354418 0.000000 139.482893 65
-18.269748 0.000000 139.356483 63
-18.183287 0.000000 139.209199 62
-18.106887 0.000000 139.172450 72
-18.030987 0.000000 139.140967 73
-17.947612 0.000000 139.025489 69
-17.870863 0.000000 138.983561 69
-17.791363 0.000000 138.910194 61
-17.710075 0.000000 138.815930 69
-17.630245 0.000000 138.737454 64
-17.550937 0.000000 138.664269 72
-17.471688 0.000000 138.591139 70
-17.392953 0.000000 138.523283 83
-17.312922 0.000000 138.439822 76
-17.232512 0.000000 138.351219 82
-17.151284 0.000000 138.252280 65
-17.066596 0.000000 138.111833 63
-16.989520 0.000000 138.059896 67
-16.907663 0.000000 137.950866 67
-16.831130 0.000000 137.904202 68
-16.752465 0.000000 137.831632 75
-16.672997 0.000000 137.748754 69
-16.594026 0.000000 137.671121 77
-16.513838 0.000000 137.578034 69
-16.431604 0.000000 137.459202 72
-16.354539 0.000000 137.402446 76
-16.272479 0.000000 137.283826 78
-16.196784 0.000000 137.242631 79
-16.119876 0.000000 137.185999 86
-16.040946 0.000000 137.103661 76
-15.960851 0.000000 137.005965 88
-15.882063 0.000000 136.923777 78
-15.803343 0.000000 136.841658 84
-15.724287 0.000000 136.754478 69
-15.644900 0.000000 136.662251 76
-15.567987 0.000000 136.600830 75
-15.491124 0.000000 136.539447 92
-15.412334 0.000000 136.452534 85
-15.333615 0.000000 136.365698 87
-15.255749 0.000000 136.289147 69
-15.177168 0.000000 136.202454 78
-15.098658 0.000000 136.115839 72
-15.020219 0.000000 136.029299 83
-14.942233 0.000000 135.947922 76
-14.864312 0.000000 135.866612 87
-14.786835 0.000000 135.790448 72
-14.707544 0.000000 135.688973 78
-14.629828 0.000000 135.607877 79
-14.554031 0.000000 135.552176 97
-14.477542 0.000000 135.486380 85
-14.402205 0.000000 135.435807 86
-14.323627 0.000000 135.339753 87
-14.248751 0.000000 135.294308 86
-14.168866 0.000000 135.178203 83
-14.092658 0.000000 135.112656 77
-14.013298 0.000000 135.001804 73
-13.938981 0.000000 134.961550 76
-13.862586 0.000000 134.891116 87
-13.785896 0.000000 134.815704 77
-13.709267 0.000000 134.740349 88
-13.633043 0.000000 134.670074 80
-13.558592 0.000000 134.624936 82
-13.480422 0.000000 134.524660 84
-13.405045 0.000000 134.464558 92
-13.324999 0.000000 134.334420 106
-13.250750 0.000000 134.289437 104
-13.173873 0.000000 134.204492 90
-13.100041 0.000000 134.164562 83
-13.021967 0.000000 134.059766 83
-12.947895 0.000000 134.014908 82
-12.871911 0.000000 133.940166 90
-12.796630 0.000000 133.875441 88
-12.723644 0.000000 133.845600 95
-12.645585 0.000000 133.736173 90
-12.571093 0.000000 133.681521 81
-12.495701 0.000000 133.612000 86
-12.420363 0.000000 133.542528 75
-12.344769 0.000000 133.468146 81
-12.268926 0.000000 133.388866 73
-12.195594 0.000000 133.349264 76
-12.118642 0.000000 133.250287 81
-12.045093 0.000000 133.205796 86
-11.968575 0.000000 133.111905 85
-11.895113 0.000000 133.067476 80
-11.819908 0.000000 132.993455 89
-11.745937 0.000000 132.939215 87
-11.674055 0.000000 132.919515 94
-11.601606 0.000000 132.889959 88
-11.524276 0.000000 132.776675 78
-11.449614 0.000000 132.707794 80
-11.373015 0.000000 132.604551 94
-11.301296 0.000000 132.584916 101
-11.228751 0.000000 132.550548 95
-11.152611 0.000000 132.452379 95
-11.079312 0.000000 132.403342 89
-11.003032 0.000000 132.300422 84
-10.931193 0.000000 132.275948 87
-10.859643 0.000000 132.256377 82
-10.783807 0.000000 132.158504 75
-10.710715 0.000000 132.109614 75
-10.636337 0.000000 132.036315 88
-10.563067 0.000000 131.982603 79
-10.490620 0.000000 131.943562 75
-10.414577 0.000000 131.836252 78
-10.342216 0.000000 131.797270 89
-10.267334 0.000000 131.709597 99
-10.195052 0.000000 131.670665 103
-10.123301 0.000000 131.641479 94
-10.052072 0.000000 131.622031 84
-9.976896 0.000000 131.524795 81
-9.904006 0.000000 131.471363 83
-9.828964 0.000000 131.374279 85
-9.757140 0.000000 131.340330 82
-9.685581 0.000000 131.311241 80
-9.610713 0.000000 131.214317 80
-9.539224 0.000000 131.185266 76
-9.466352 0.000000 131.127179 80
-9.392829 0.000000 131.054617 73
-9.321203 0.000000 131.020778 77
-9.246634 0.000000 130.924144 80
-9.174631 0.000000 130.880694 81
-9.102661 0.000000 130.837264 82
-9.028497 0.000000 130.745634 84
-8.957274 0.000000 130.716720 81
-8.885854 0.000000 130.682997 78
-8.811855 0.000000 130.591512 78
-8.741368 0.000000 130.577079 81
-8.670893 0.000000 130.562647 77
-8.596411 0.000000 130.456857 72
-8.524525 0.000000 130.408810 78
-8.453091 0.000000 130.370389 85
-8.379423 0.000000 130.279200 88
-8.308272 0.000000 130.245626 87
-8.235934 0.000000 130.183305 92
-8.163844 0.000000 130.125813 88
-8.093186 0.000000 130.101867 92
-8.021957 0.000000 130.063567 86
-7.948421 0.000000 129.967884 86
-7.878043 0.000000 129.948757 87
-7.807489 0.000000 129.924853 87
-7.734495 0.000000 129.838858 88
-7.663813 0.000000 129.810207 83
-7.592967 0.000000 129.776792 77
-7.519578 0.000000 129.676626 79
-7.448446 0.000000 129.633726 105
-7.377885 0.000000 129.605134 123
-7.306101 0.000000 129.543222 96
-7.235244 0.000000 129.505138 76
-7.164591 0.000000 129.471826 79
-7.091720 0.000000 129.376728 85
-7.020800 0.000000 129.333960 86
-6.948056 0.000000 129.238998 80
-6.877554 0.000000 129.205777 76
-6.807077 0.000000 129.172567 75
-6.734830 0.000000 129.087239 73
-6.664585 0.000000 129.058805 76
-6.594202 0.000000 129.025644 83
-6.524160 0.000000 129.001961 84
-6.452263 0.000000 128.921513 80
-6.382433 0.000000 128.902583 80
-6.312160 0.000000 128.869474 84
-6.240706 0.000000 128.798583 85
-6.170051 0.000000 128.751345 93
-6.100460 0.000000 128.737167 79
-6.030881 0.000000 128.722989 69
-5.958729 0.000000 128.623913 69
-5.888778 0.000000 128.595611 75
-5.818849 0.000000 128.567317 76
-5.747145 0.000000 128.477815 76
-5.677281 0.000000 128.449555 81
-5.607438 0.000000 128.421302 82
-5.535625 0.000000 128.322537 77
-5.465721 0.000000 128.289623 78
-5.396229 0.000000 128.270810 82
-5.326623 0.000000 128.247304 87
-5.256407 0.000000 128.200333 82
-5.186350 0.000000 128.158075 91
-5.116936 0.000000 128.139286 90
-5.047294 0.000000 128.111120 80
-4.976012 0.000000 128.017358 75
-4.906672 0.000000 127.998595 79
-4.837115 0.000000 127.970469 77
-4.765990 0.000000 127.876845 77
-4.696388 0.000000 127.844079 82
-4.627030 0.000000 127.820672 81
-4.557148 0.000000 127.773906 87
-4.487301 0.000000 127.727163 82
-4.417699 0.000000 127.689778 87
-4.347094 0.000000 127.605755 86
-4.277261 0.000000 127.554432 103
-4.208659 0.000000 127.559059 101
-4.139761 0.000000 127.549701 101
-4.070389 0.000000 127.517043 101
-4.000570 0.000000 127.461108 88
-3.930978 0.000000 127.414514 92
-3.862056 0.000000 127.400515 87
-3.793145 0.000000 127.386516 82
-3.723544 0.000000 127.335307 69
-3.653637 0.000000 127.265534 77
-3.584539 0.000000 127.237615 84
-3.515626 0.000000 127.218993 84
-3.446162 0.000000 127.167872 74
-3.376578 0.000000 127.107499 81
-3.307810 0.000000 127.093539 84
-3.238977 0.000000 127.074943 83
-3.170306 0.000000 127.065624 80
-3.101641 0.000000 127.056305 78
-3.031786 0.000000 126.968201 76
-2.963094 0.000000 126.954259 80
-2.894481 0.000000 126.944949 84
-2.825743 0.000000 126.926378 83
-2.756573 0.000000 126.875410 73
-2.687378 0.000000 126.819843 82
-2.618646 0.000000 126.796670 89
-2.549931 0.000000 126.773503 89
-2.481460 0.000000 126.768829 88
-2.412993 0.000000 126.764155 88
-2.344583 0.000000 126.764103 85
-2.276121 0.000000 126.759428 82
-2.206758 0.000000 126.671594 85
-2.138138 0.000000 126.648454 89
-2.069723 0.000000 126.643782 84
-2.001266 0.000000 126.634494 80
-1.932729 0.000000 126.615975 81
-1.863912 0.000000 126.565166 75
-1.795252 0.000000 126.528215 87
-1.726927 0.000000 126.528156 96
-1.658529 0.000000 126.518875 99
-1.590066 0.000000 126.500376 99
-1.521685 0.000000 126.491097 118
-1.453341 0.000000 126.486426 137
-1.385001 0.000000 126.481755 124
-1.316607 0.000000 126.467868 99
-1.248089 0.000000 126.430950 78
-1.179547 0.000000 126.384837 88
-1.111203 0.000000 126.370962 101
-1.042868 0.000000 126.357088 106
-0.974604 0.000000 126.357021 109
-0.906359 0.000000 126.361556 106
-0.838076 0.000000 126.356885 99
-0.769797 0.000000 126.352213 99
-0.701507 0.000000 126.342939 107
-0.633200 0.000000 126.324464 111
-0.564906 0.000000 126.305991 107
-0.496591 0.000000 126.269128 90
-0.428322 0.000000 126.246068 96
-0.360097 0.000000 126.245994 93
-0.291853 0.000000 126.222938 96
-0.223628 0.000000 126.204481 108
-0.155417 0.000000 126.204404 104
-0.087202 0.000000 126.213517 97
-0.018987 0.000000 126.213438 108
0.049223 0.000000 126.208764 117
0.117424 0.000000 126.199494 115
0.185643 0.000000 126.204008 104
0.253856 0.000000 126.203926 96
0.322080 0.000000 126.208437 98
0.390308 0.000000 126.212949 101
0.458511 0.000000 126.208269 112
0.526743 0.000000 126.212778 123
0.595015 0.000000 126.226477 112
0.663414 0.000000 126.267760 97
0.731652 0.000000 126.267671 104
0.799868 0.000000 126.262984 104
0.867885 0.000000 126.221525 114
0.936056 0.000000 126.212243 116
1.004304 0.000000 126.216746 117
1.072556 0.000000 126.221248 111
1.140749 0.000000 126.216558 104
1.208973 0.000000 126.216463 107
1.277196 0.000000 126.216366 108
1.345493 0.000000 126.225459 108
1.414137 0.000000 126.275926 97
1.482424 0.000000 126.280424 88
1.550714 0.000000 126.284922 85
1.619008 0.000000 126.289419 93
1.687217 0.000000 126.284718 98
1.755470 0.000000 126.284614 93
1.824153 0.000000 126.325904 99
1.892422 0.000000 126.325798 97
1.960845 0.000000 126.339493 95
2.029120 0.000000 126.339385 96
2.097450 0.000000 126.343877 99
2.165896 0.000000 126.357572 100
2.234353 0.000000 126.371267 98
2.302702 0.000000 126.375757 97
2.370993 0.000000 126.375643 105
2.439285 0.000000 126.375529 111
2.508095 0.000000 126.412242 98
2.576666 0.000000 126.430545 89
2.644981 0.000000 126.430427 85
2.713227 0.000000 126.425702 94
2.781612 0.000000 126.430187 96
2.850585 0.000000 126.471523 105
2.919142 0.000000 126.485224 109
2.987785 0.000000 126.503534 105
3.056443 0.000000 126.521846 93
3.125673 0.000000 126.572441 79
3.194860 0.000000 126.618447 89
3.263416 0.000000 126.627548 98
3.331980 0.000000 126.636648 103
3.400552 0.000000 126.645748 106
3.468955 0.000000 126.645615 109
3.537269 0.000000 126.640866 108
3.605854 0.000000 126.649963 104
3.674541 0.000000 126.663676 100
3.743143 0.000000 126.672773 96
3.812333 0.000000 126.709579 85
3.880960 0.000000 126.718678 92
3.949795 0.000000 126.737017 98
4.019254 0.000000 126.783089 107
4.088128 0.000000 126.801438 108
4.156805 0.000000 126.810541 107
4.226131 0.000000 126.847394 92
4.294942 0.000000 126.861127 94
4.363654 0.000000 126.870233 96
4.433044 0.000000 126.907106 106
4.501895 0.000000 126.920844 104
4.570871 0.000000 126.939213 104
4.639861 0.000000 126.957584 107
4.709341 0.000000 126.994487 98
4.778125 0.000000 127.003601 97
4.848017 0.000000 127.054426 104
4.917204 0.000000 127.077453 99
4.986156 0.000000 127.091209 103
5.055247 0.000000 127.109604 117
5.125126 0.000000 127.155842 104
5.195040 0.000000 127.202102 105
5.264061 0.000000 127.215872 110
5.333092 0.000000 127.229645 115
5.402542 0.000000 127.257353 114
5.472978 0.000000 127.317604 101
5.543040 0.000000 127.363938 109
5.612289 0.000000 127.382380 114
5.681696 0.000000 127.405478 118
5.752567 0.000000 127.475131 108
5.822172 0.000000 127.502908 98
5.892095 0.000000 127.540010 97
5.961895 0.000000 127.572465 95
6.033086 0.000000 127.646903 92
6.102336 0.000000 127.660730 88
6.171286 0.000000 127.665227 85
6.240397 0.000000 127.674390 88
6.309673 0.000000 127.688219 97
6.380404 0.000000 127.744066 86
6.451664 0.000000 127.813962 84
6.521664 0.000000 127.846507 86
6.592683 0.000000 127.907122 82
6.663580 0.000000 127.963096 87
6.733333 0.000000 127.986327 82
6.803104 0.000000 128.009563 86
6.874967 0.000000 128.089025 94
6.945317 0.000000 128.126350 100
7.015518 0.000000 128.158999 100
7.087526 0.000000 128.238585 98
7.157613 0.000000 128.266577 93
7.227721 0.000000 128.294577 85
7.300604 0.000000 128.393080 79
7.370408 0.000000 128.411711 74
7.440413 0.000000 128.435049 76
7.511002 0.000000 128.472508 85
7.583527 0.000000 128.557066 85
7.654189 0.000000 128.594573 80
7.727407 0.000000 128.693388 80
7.797952 0.000000 128.726230 84
7.868124 0.000000 128.749645 82
7.937913 0.000000 128.763625 72
8.010938 0.000000 128.853166 68
8.081793 0.000000 128.890790 71
8.155345 0.000000 128.989913 72
8.225657 0.000000 129.013392 68
8.295986 0.000000 129.036877 64
8.368228 0.000000 129.102989 66
8.441371 0.000000 129.188110 61
8.513292 0.000000 129.244839 67
8.585255 0.000000 129.301602 55
8.658351 0.000000 129.382149 56
8.729308 0.000000 129.415229 59
8.801621 0.000000 129.476849 67
8.871744 0.000000 129.490935 74
8.945709 0.000000 129.585924 70
9.017701 0.000000 129.638126 69
9.088815 0.000000 129.671294 70
9.162495 0.000000 129.756923 67
9.232980 0.000000 129.775820 62
9.304182 0.000000 129.809036 61
9.379194 0.000000 129.918673 62
9.450237 0.000000 129.947159 62
9.523464 0.000000 130.018687 65
9.596503 0.000000 130.085482 55
9.669837 0.000000 130.157113 58
9.743226 0.000000 130.228798 58
9.814192 0.000000 130.252581 63
9.884675 0.000000 130.266779 70
9.956678 0.000000 130.309757 80
10.029221 0.000000 130.362354 60
10.100527 0.000000 130.390970 51
10.174683 0.000000 130.472439 53
10.248902 0.000000 130.553977 51
10.321618 0.000000 130.606707 62
10.394638 0.000000 130.664281 57
10.467173 0.000000 130.712253 57
10.541344 0.000000 130.789173 69
10.614232 0.000000 130.842031 66
10.684997 0.000000 130.856313 66
10.758769 0.000000 130.923691 73
10.833416 0.000000 131.005612 68
10.907022 0.000000 131.068258 79
10.980399 0.000000 131.126107 71
11.052139 0.000000 131.154947 66
11.126723 0.000000 131.232220 72
11.201367 0.000000 131.309554 71
11.273784 0.000000 131.348147 71
11.349687 0.000000 131.444989 66
11.422186 0.000000 131.483636 64
11.496176 0.000000 131.546591 76
11.569039 0.000000 131.590139 71
11.640456 0.000000 131.609389 68
11.713080 0.000000 131.648100 64
11.789630 0.000000 131.750112 60
11.860830 0.000000 131.764522 59
11.931739 0.000000 131.774063 59
12.003266 0.000000 131.793347 58
12.081263 0.000000 131.915022 61
12.154716 0.000000 131.963613 63
12.231946 0.000000 132.070843 63
12.304558 0.000000 132.104848 66
12.379722 0.000000 132.177987 79
12.454309 0.000000 132.241392 71
12.529266 0.000000 132.309736 75
12.603957 0.000000 132.373227 67
12.677079 0.000000 132.412238 69
12.751209 0.000000 132.465983 75
12.823088 0.000000 132.485400 72
12.897949 0.000000 132.549004 65
12.972860 0.000000 132.612649 71
13.045487 0.000000 132.641924 64
13.124515 0.000000 132.764669 62
13.196887 0.000000 132.789066 73
13.271656 0.000000 132.847942 72
13.344764 0.000000 132.882214 67
13.420305 0.000000 132.951007 67
13.495901 0.000000 133.019849 56
13.568769 0.000000 133.049244 55
13.647960 0.000000 133.167563 61
13.721614 0.000000 133.206890 73
13.797069 0.000000 133.270965 84
13.872933 0.000000 133.340033 72
13.945270 0.000000 133.359619 73
14.020143 0.000000 133.413885 81
14.096508 0.000000 133.488013 68
14.172934 0.000000 133.562197 72
14.246122 0.000000 133.591753 74
14.321912 0.000000 133.656082 68
14.398124 0.000000 133.725423 75
14.474393 0.000000 133.794814 69
14.548843 0.000000 133.839368 70
14.628229 0.000000 133.948689 66
14.701261 0.000000 133.973378 59
14.777742 0.000000 134.042946 60
14.850065 0.000000 134.057682 60
14.926250 0.000000 134.122318 55
15.003261 0.000000 134.196987 59
15.077219 0.000000 134.231731 60
15.154727 0.000000 134.311484 61
15.230332 0.000000 134.366281 79
15.305190 0.000000 134.411096 71
15.379685 0.000000 134.450924 63
15.457411 0.000000 134.530857 65
15.529576 0.000000 134.540651 64
15.606190 0.000000 134.605609 57
15.684482 0.000000 134.690690 66
15.762435 0.000000 134.770821 65
15.835940 0.000000 134.795715 67
15.911526 0.000000 134.845756 73
15.987981 0.000000 134.905885 69
16.063652 0.000000 134.955982 71
16.141038 0.000000 135.026255 77
16.218482 0.000000 135.096579 64
16.296407 0.000000 135.172000 67
16.373968 0.000000 135.242429 64
16.447311 0.000000 135.262392 67
16.524107 0.000000 135.322779 72
16.601815 0.000000 135.393318 66
16.676543 0.000000 135.428488 68
16.753916 0.000000 135.494040 73
16.830904 0.000000 135.554571 65
16.905299 0.000000 135.584731 60
16.983257 0.000000 135.655460 67
17.059495 0.000000 135.705943 80
17.133541 0.000000 135.731074 94
17.214338 0.000000 135.832386 75
17.292966 0.000000 135.908379 59
17.366669 0.000000 135.928476 64
17.443120 0.000000 135.979101 79
17.521900 0.000000 136.055208 72
17.601204 0.000000 136.136471 81
17.679651 0.000000 136.207601 72
17.755370 0.000000 136.248166 70
17.832988 0.000000 136.309166 73
17.913000 0.000000 136.395751 66
17.992143 0.000000 136.472184 83
18.066617 0.000000 136.497512 85
18.143487 0.000000 136.548432 74
18.221354 0.000000 136.609620 86
18.296393 0.000000 136.640105 91
18.374829 0.000000 136.706476 74
18.453805 0.000000 136.778022 67
18.529921 0.000000 136.818823 65
18.608514 0.000000 136.885316 67
18.685689 0.000000 136.936437 77
18.765372 0.000000 137.013294 69
18.841156 0.000000 137.049048 74
18.918959 0.000000 137.105401 79
18.999807 0.000000 137.192694 61
19.081232 0.000000 137.285220 63
19.156681 0.000000 137.315914 60
19.239756 0.000000 137.424048 61
19.314269 0.000000 137.444455 64
19.389310 0.000000 137.470031 61
19.473611 0.000000 137.588680 56
19.548731 0.000000 137.614293 53
19.624389 0.000000 137.645089 55
19.708394 0.000000 137.758767 63
19.784136 0.000000 137.789608 69
19.864101 0.000000 137.861947 61
19.943073 0.000000 137.923957 63
20.019979 0.000000 137.965233 57
20.105424 0.000000 138.089680 57
20.181365 0.000000 138.120623 55
20.262693 0.000000 138.203614 50
20.343014 0.000000 138.276257 66
20.417447 0.000000 138.291626 82
20.490807 0.000000 138.296576 86
20.569075 0.000000 138.348432 72
20.649028 0.000000 138.415964 84
20.729038 0.000000 138.483541 81
20.808552 0.000000 138.545941 78
20.895326 0.000000 138.676351 67
20.976645 0.000000 138.754574 63
21.053557 0.000000 138.790958 57
21.129376 0.000000 138.816880 58
21.213107 0.000000 138.916184 63
21.288432 0.000000 138.936893 69
21.364911 0.000000 138.968097 66
21.450541 0.000000 139.083306 56
21.526533 0.000000 139.109303 56
21.603122 0.000000 139.140561 59
21.687816 0.000000 139.245448 59
21.764486 0.000000 139.276748 56
21.841182 0.000000 139.308057 53
21.927249 0.000000 139.423660 54
22.002858 0.000000 139.444473 57
22.079661 0.000000 139.475834 57
22.166537 0.000000 139.596911 61
22.243429 0.000000 139.628320 63
22.331072 0.000000 139.754869 58
22.410448 0.000000 139.807487 62
22.491069 0.000000 139.870719 60
22.571743 0.000000 139.933991 63
22.648838 0.000000 139.965505 64
22.728997 0.000000 140.023534 63
22.803717 0.000000 140.033864 72
22.882116 0.000000 140.076017 90
22.963621 0.000000 140.144726 79
23.043334 0.000000 140.197548 66
23.128662 0.000000 140.298234 57
23.212213 0.000000 140.383057 56
23.294588 0.000000 140.457302 53
23.372017 0.000000 140.488979 58
23.458900 0.000000 140.600624 60
23.537045 0.000000 140.637681 63
23.613953 0.000000 140.664078 65
23.701054 0.000000 140.775918 65
23.779317 0.000000 140.813039 61
23.867219 0.000000 140.930395 55
23.945577 0.000000 140.967573 65
24.022676 0.000000 140.994057 83
24.103681 0.000000 141.052683 76
24.187335 0.000000 141.132786 76
24.266491 0.000000 141.175401 73
24.353539 0.000000 141.282444 71
24.432136 0.000000 141.319752 62
24.522638 0.000000 141.453836 56
24.601337 0.000000 141.491207 61
24.680732 0.000000 141.533975 71
24.766164 0.000000 141.625237 76
24.844312 0.000000 141.657283 72
24.927187 0.000000 141.727083 61
25.010796 0.000000 141.802328 65
25.090410 0.000000 141.845228 63
25.175491 0.000000 141.931369 55
25.260646 0.000000 142.017584 58
25.343824 0.000000 142.087635 64
25.429121 0.000000 142.173984 61
25.520698 0.000000 142.309214 60
25.602016 0.000000 142.363186 56
25.696577 0.000000 142.520411 60
25.788495 0.000000 142.656108 55
25.867229 0.000000 142.688485 37
33.029782 0.000000 185.666099 28
33.106130 0.000000 185.562148 40
33.209665 0.000000 185.658148 39
33.305623 0.000000 185.698187 34
33.429077 0.000000 185.938565 35
33.535115 0.000000 186.050923 43
33.641254 0.000000 186.163386 41
33.737495 0.000000 186.203602 41
33.842685 0.000000 186.308167 41
33.951324 0.000000 186.436979 36
34.060081 0.000000 186.565930 46
34.153183 0.000000 186.582098 51
34.263246 0.000000 186.719278 44
34.382514 0.000000 186.921274 45
34.478059 0.000000 186.953668 42
34.575915 0.000000 187.002252 41
34.694440 0.000000 187.196621 40
34.805097 0.000000 187.334505 39
34.900870 0.000000 187.367018 40
35.008250 0.000000 187.480731 36
35.115731 0.000000 187.594553 36
35.209324 0.000000 187.610880 33
35.333342 0.000000 187.838810 34
35.427048 0.000000 187.855175 39
35.519593 0.000000 187.863395 48
35.610966 0.000000 187.863471 62
35.712992 0.000000 187.936895 53
35.810332 0.000000 187.977742 39
35.924380 0.000000 188.132863 32
36.050535 0.000000 188.369966 33
36.144511 0.000000 188.386416 42
36.249332 0.000000 188.476540 46
36.345780 0.000000 188.509388 47
36.442258 0.000000 188.542247 39
36.553333 0.000000 188.673492 36
36.679159 0.000000 188.903440 37
36.786853 0.000000 189.010403 46
36.882368 0.000000 189.035180 55
36.979135 0.000000 189.068191 49
37.100621 0.000000 189.265921 47
37.198751 0.000000 189.307242 48
37.296916 0.000000 189.348579 47
37.402591 0.000000 189.439438 52
37.512097 0.000000 189.555145 45
37.611673 0.000000 189.604836 44
37.732678 0.000000 189.795169 43
37.831137 0.000000 189.836682 38
37.960028 0.000000 190.077140 38
38.057370 0.000000 190.110456 47
38.154742 0.000000 190.143783 48
38.276430 0.000000 190.334962 43
38.377771 0.000000 190.393303 43
38.485595 0.000000 190.493283 55
38.580603 0.000000 190.510074 56
38.687269 0.000000 190.601823 48
38.786230 0.000000 190.643631 49
38.913867 0.000000 190.868992 48
39.015588 0.000000 190.927600 44
39.140955 0.000000 191.136749 38
39.240213 0.000000 191.178750 33
39.351378 0.000000 191.296142 36
39.446771 0.000000 191.313064 38
39.558097 0.000000 191.430589 35
39.672192 0.000000 191.565019 37
39.785075 0.000000 191.691193 35
39.881999 0.000000 191.716585 37
39.993717 0.000000 191.834504 42
40.090723 0.000000 191.859931 45
40.202608 0.000000 191.977993 40
40.317312 0.000000 192.113035 47
40.426701 0.000000 192.214462 43
40.523909 0.000000 192.239978 38
40.638912 0.000000 192.375314 33
40.755415 0.000000 192.519260 32
40.856910 0.000000 192.570237 45
40.965349 0.000000 192.663582 54
41.057265 0.000000 192.655321 52
41.163047 0.000000 192.731785 49
41.267504 0.000000 192.799819 44
41.383183 0.000000 192.935786 50
41.494790 0.000000 193.046413 46
41.595264 0.000000 193.089127 45
41.708445 0.000000 193.208403 49
41.821737 0.000000 193.327797 41
41.939390 0.000000 193.472882 44
42.052915 0.000000 193.592534 39
42.150866 0.000000 193.618380 38
42.250269 0.000000 193.652771 39
42.378371 0.000000 193.858095 49
42.477906 0.000000 193.892558 57
42.577471 0.000000 193.927034 58
42.690076 0.000000 194.038577 50
42.805685 0.000000 194.167366 51
42.937428 0.000000 194.390727 47
43.037266 0.000000 194.425353 45
43.137134 0.000000 194.459990 41
43.251709 0.000000 194.580624 41
43.366396 0.000000 194.701377 35
43.485629 0.000000 194.848105 35
43.600556 0.000000 194.969121 35
43.697761 0.000000 194.986664 42
43.794983 0.000000 195.004212 46
43.889236 0.000000 195.004503 46
43.984989 0.000000 195.013426 45
44.115256 0.000000 195.221040 41
44.241219 0.000000 195.403022 34
44.364343 0.000000 195.567930 41
44.478530 0.000000 195.680985 45
44.588259 0.000000 195.768093 48
44.687395 0.000000 195.794456 40
44.789611 0.000000 195.838202 36
44.907189 0.000000 195.968902 42
45.021817 0.000000 196.082330 43
45.121134 0.000000 196.108769 44
45.239020 0.000000 196.239758 45
45.355481 0.000000 196.362161 41
45.458062 0.000000 196.406118 43
45.574711 0.000000 196.528687 45
45.693042 0.000000 196.660121 37
45.811498 0.000000 196.791695 39
45.911200 0.000000 196.818300 36
46.050370 0.000000 197.064031 35
46.148628 0.000000 197.081924 39
46.245318 0.000000 197.091048 41
46.362690 0.000000 197.214298 37
46.464228 0.000000 197.249789 41
46.562602 0.000000 197.267717 40
46.697859 0.000000 197.487928 36
46.802779 0.000000 197.541112 40
46.899688 0.000000 197.550282 45
47.014379 0.000000 197.656365 42
47.132412 0.000000 197.780182 33
47.229434 0.000000 197.789376 37
47.329723 0.000000 197.816220 38
47.474138 0.000000 198.081609 36
47.597526 0.000000 198.232407 38
47.716129 0.000000 198.356798 35
47.836500 0.000000 198.490183 36
47.935494 0.000000 198.508314 37
48.056060 0.000000 198.641863 37
48.160123 0.000000 198.686672 41
48.290907 0.000000 198.873790 47
48.391769 0.000000 198.900884 41
48.517806 0.000000 199.061584 37
48.638958 0.000000 199.195725 36
48.739994 0.000000 199.222894 42
48.841056 0.000000 199.250072 44
48.977740 0.000000 199.464846 41
49.080631 0.000000 199.501021 37
49.202305 0.000000 199.635636 39
49.301885 0.000000 199.653957 40
49.401482 0.000000 199.672283 38
49.525136 0.000000 199.816049 39
49.624820 0.000000 199.834402 43
49.740053 0.000000 199.933485 41
49.864035 0.000000 200.077552 32
49.988161 0.000000 200.221783 36
50.088052 0.000000 200.240204 38
50.212390 0.000000 200.384624 37
50.312368 0.000000 200.403073 38
50.452719 0.000000 200.628846 40
50.554577 0.000000 200.656358 41
50.679397 0.000000 200.801258 44
50.799051 0.000000 200.919197 37
50.899300 0.000000 200.937735 35
51.001345 0.000000 200.965323 35
51.123019 0.000000 201.092474 44
51.244818 0.000000 201.219754 44
51.350609 0.000000 201.265541 43
51.497785 0.000000 201.520115 41
51.625399 0.000000 201.675111 45
51.729650 0.000000 201.711972 52
51.846626 0.000000 201.812564 45
51.972790 0.000000 201.958807 35
52.071752 0.000000 201.968407 34
52.198130 0.000000 202.114833 31
52.322823 0.000000 202.252294 37
52.423761 0.000000 202.271061 42
52.548660 0.000000 202.408695 41
52.673698 0.000000 202.546480 38
52.795167 0.000000 202.666083 39
52.898178 0.000000 202.694090 40
53.025418 0.000000 202.841369 41
53.149073 0.000000 202.970444 43
53.256003 0.000000 203.016908 37
53.379867 0.000000 203.146166 37
53.503861 0.000000 203.275558 36
53.633650 0.000000 203.432742 41
53.733309 0.000000 203.442496 42
53.855741 0.000000 203.562967 38
53.961173 0.000000 203.600432 39
54.062829 0.000000 203.619442 43
54.164506 0.000000 203.638456 43
54.310237 0.000000 203.870106 40
54.415881 0.000000 203.907674 38
54.542736 0.000000 204.047132 40
54.669733 0.000000 204.186746 37
54.771705 0.000000 204.205863 39
54.900856 0.000000 204.354944 37
55.030162 0.000000 204.504202 46
55.136203 0.000000 204.541979 46
55.277491 0.000000 204.747344 40
55.385641 0.000000 204.794519 37
55.515469 0.000000 204.944304 42
55.639534 0.000000 205.066248 37
55.741968 0.000000 205.085528 33
55.872166 0.000000 205.235665 34
55.972709 0.000000 205.245626 34
56.075256 0.000000 205.264944 32
56.231715 0.000000 205.537097 33
56.332406 0.000000 205.547094 32
56.493337 0.000000 205.838639 32
56.598193 0.000000 205.867463 35
56.723263 0.000000 205.990322 35
56.824171 0.000000 206.000373 40
56.925093 0.000000 206.010427 41
57.052436 0.000000 206.142854 41
57.183991 0.000000 206.294277 33
57.315705 0.000000 206.445882 34
57.418889 0.000000 206.465430 34
57.575497 0.000000 206.730717 35
57.678826 0.000000 206.750319 35
57.780112 0.000000 206.760464 34
57.910368 0.000000 206.903167 33
58.038696 0.000000 207.036549 33
58.142202 0.000000 207.056214 30
58.276989 0.000000 207.218247 31
58.407766 0.000000 207.361474 32
58.511444 0.000000 207.381202 35
58.640339 0.000000 207.515099 33
58.773584 0.000000 207.668195 32
58.909101 0.000000 207.831016 32
59.040553 0.000000 207.974940 32
59.140300 0.000000 207.975682 34
59.240052 0.000000 207.976426 32
59.373903 0.000000 208.130087 30
59.507914 0.000000 208.283934 31
59.642085 0.000000 208.437965 32
59.744179 0.000000 208.448315 34
59.876425 0.000000 208.592952 34
59.980754 0.000000 208.612920 33
60.113219 0.000000 208.757747 33
60.245832 0.000000 208.902737 35
60.345976 0.000000 208.903524 38
60.478796 0.000000 209.048683 35
60.616135 0.000000 209.213288 38
60.751454 0.000000 209.368448 35
60.886933 0.000000 209.523794 36
60.989532 0.000000 209.534271 34
61.123032 0.000000 209.680142 32
61.256681 0.000000 209.826178 33
61.361637 0.000000 209.846377 34
61.464391 0.000000 209.856892 35
61.629517 0.000000 210.138990 35
61.734633 0.000000 210.159247 37
61.837529 0.000000 210.169797 35
61.969582 0.000000 210.306669 32
62.106269 0.000000 210.463147 31
62.243114 0.000000 210.619810 31
62.377859 0.000000 210.766904 32
62.481025 0.000000 210.777519 35
62.584202 0.000000 210.788136 37
62.687389 0.000000 210.798757 36
62.854386 0.000000 211.082872 32
62.959985 0.000000 211.103300 30
63.097658 0.000000 211.260727 30
63.237786 0.000000 211.428140 31
63.403434 0.000000 211.703756 35
63.507011 0.000000 211.714466 38
63.610599 0.000000 211.725178 36
63.716512 0.000000 211.745717 33
63.887482 0.000000 212.041673 35
63.993541 0.000000 212.062264 39
64.129958 0.000000 212.210954 36
64.266521 0.000000 212.359806 34
64.405577 0.000000 212.518698 32
64.544790 0.000000 212.677772 32
64.684162 0.000000 212.837030 33
64.755160 0.000000 212.709272 34
64.887569 0.000000 212.838858 34
65.024844 0.000000 212.988390 34
65.128982 0.000000 212.999221 33
65.304600 0.000000 213.307802 34
65.411257 0.000000 213.328596 36
65.515537 0.000000 213.339457 37
65.617430 0.000000 213.340380 37
